<svg width="26" height="26" viewBox="0 0 26 26" fill="none" xmlns="http://www.w3.org/2000/svg">
<g clip-path="url(#clip0_1387_277)">
<path d="M12.9998 9.74984C12.1379 9.74984 11.3112 10.0922 10.7017 10.7017C10.0922 11.3112 9.74984 12.1379 9.74984 12.9998C9.74984 13.8618 10.0922 14.6884 10.7017 15.2979C11.3112 15.9074 12.1379 16.2498 12.9998 16.2498C13.8618 16.2498 14.6884 15.9074 15.2979 15.2979C15.9074 14.6884 16.2498 13.8618 16.2498 12.9998C16.2498 12.1379 15.9074 11.3112 15.2979 10.7017C14.6884 10.0922 13.8618 9.74984 12.9998 9.74984ZM12.9998 7.58317C14.4364 7.58317 15.8142 8.15385 16.83 9.16967C17.8458 10.1855 18.4165 11.5632 18.4165 12.9998C18.4165 14.4364 17.8458 15.8142 16.83 16.83C15.8142 17.8458 14.4364 18.4165 12.9998 18.4165C11.5632 18.4165 10.1855 17.8458 9.16967 16.83C8.15385 15.8142 7.58317 14.4364 7.58317 12.9998C7.58317 11.5632 8.15385 10.1855 9.16967 9.16967C10.1855 8.15385 11.5632 7.58317 12.9998 7.58317ZM20.0415 7.31234C20.0415 7.67148 19.8988 8.01592 19.6449 8.26988C19.3909 8.52383 19.0465 8.6665 18.6873 8.6665C18.3282 8.6665 17.9838 8.52383 17.7298 8.26988C17.4758 8.01592 17.3332 7.67148 17.3332 7.31234C17.3332 6.95319 17.4758 6.60875 17.7298 6.3548C17.9838 6.10084 18.3282 5.95817 18.6873 5.95817C19.0465 5.95817 19.3909 6.10084 19.6449 6.3548C19.8988 6.60875 20.0415 6.95319 20.0415 7.31234ZM12.9998 4.33317C10.3197 4.33317 9.882 4.34075 8.63509 4.396C7.78575 4.43609 7.21592 4.54984 6.68725 4.75567C6.21709 4.93767 5.878 5.15542 5.51725 5.51725C5.17818 5.84485 4.91747 6.2448 4.75459 6.68725C4.54875 7.21809 4.435 7.78684 4.396 8.63509C4.33967 9.83109 4.33317 10.2493 4.33317 12.9998C4.33317 15.68 4.34075 16.1177 4.396 17.3646C4.43609 18.2128 4.54984 18.7838 4.75459 19.3113C4.93875 19.7826 5.15542 20.1217 5.51509 20.4813C5.88017 20.8453 6.21925 21.0631 6.68509 21.2429C7.22025 21.4498 7.79009 21.5647 8.63509 21.6037C9.83109 21.66 10.2493 21.6665 12.9998 21.6665C15.68 21.6665 16.1177 21.6589 17.3646 21.6037C18.2118 21.5636 18.7827 21.4498 19.3113 21.2451C19.7804 21.062 20.1217 20.8443 20.4813 20.4846C20.8464 20.1195 21.0642 19.7804 21.244 19.3146C21.4498 18.7805 21.5647 18.2096 21.6037 17.3646C21.66 16.1686 21.6665 15.7504 21.6665 12.9998C21.6665 10.3197 21.6589 9.882 21.6037 8.63509C21.5636 7.78792 21.4498 7.21592 21.244 6.68725C21.0807 6.24526 20.8205 5.84546 20.4824 5.51725C20.155 5.178 19.755 4.91727 19.3124 4.75459C18.7816 4.54875 18.2118 4.435 17.3646 4.396C16.1686 4.33967 15.7504 4.33317 12.9998 4.33317ZM12.9998 2.1665C15.9433 2.1665 16.3105 2.17734 17.4653 2.2315C18.6191 2.28567 19.4045 2.46659 20.0957 2.73525C20.8107 3.01042 21.413 3.38309 22.0153 3.98434C22.5662 4.52589 22.9925 5.18097 23.2644 5.904C23.532 6.59409 23.714 7.38059 23.7682 8.53434C23.8191 9.68917 23.8332 10.0564 23.8332 12.9998C23.8332 15.9433 23.8223 16.3105 23.7682 17.4653C23.714 18.6191 23.532 19.4045 23.2644 20.0957C22.9932 20.8191 22.5669 21.4743 22.0153 22.0153C21.4736 22.566 20.8186 22.9922 20.0957 23.2644C19.4056 23.532 18.6191 23.714 17.4653 23.7682C16.3105 23.8191 15.9433 23.8332 12.9998 23.8332C10.0564 23.8332 9.68917 23.8223 8.53434 23.7682C7.38059 23.714 6.59517 23.532 5.904 23.2644C5.18069 22.993 4.52549 22.5667 3.98434 22.0153C3.43336 21.4739 3.0071 20.8188 2.73525 20.0957C2.46659 19.4056 2.28567 18.6191 2.2315 17.4653C2.18059 16.3105 2.1665 15.9433 2.1665 12.9998C2.1665 10.0564 2.17734 9.68917 2.2315 8.53434C2.28567 7.3795 2.46659 6.59517 2.73525 5.904C3.00634 5.18053 3.43271 4.52527 3.98434 3.98434C4.52565 3.43317 5.1808 3.00688 5.904 2.73525C6.59517 2.46659 7.3795 2.28567 8.53434 2.2315C9.68917 2.18059 10.0564 2.1665 12.9998 2.1665Z" fill="white"/>
</g>
<defs>
<clipPath id="clip0_1387_277">
<rect width="26" height="26" fill="white"/>
</clipPath>
</defs>
</svg>
