<svg width="26" height="26" viewBox="0 0 26 26" fill="none" xmlns="http://www.w3.org/2000/svg">
<g clip-path="url(#clip0_1383_274)">
<path d="M23.3381 7.03966C23.8332 8.97016 23.8332 13.0002 23.8332 13.0002C23.8332 13.0002 23.8332 17.0302 23.3381 18.9607C23.0629 20.0277 22.258 20.8673 21.2386 21.1512C19.3872 21.6668 12.9998 21.6668 12.9998 21.6668C12.9998 21.6668 6.61575 21.6668 4.76109 21.1512C3.73734 20.863 2.9335 20.0245 2.66159 18.9607C2.1665 17.0302 2.1665 13.0002 2.1665 13.0002C2.1665 13.0002 2.1665 8.97016 2.66159 7.03966C2.93675 5.97258 3.74167 5.133 4.76109 4.84916C6.61575 4.3335 12.9998 4.3335 12.9998 4.3335C12.9998 4.3335 19.3872 4.3335 21.2386 4.84916C22.2623 5.13733 23.0662 5.97583 23.3381 7.03966ZM10.8332 16.7918L17.3332 13.0002L10.8332 9.2085V16.7918Z" fill="white"/>
</g>
<defs>
<clipPath id="clip0_1383_274">
<rect width="26" height="26" fill="white"/>
</clipPath>
</defs>
</svg>
